<svg xmlns="http://www.w3.org/2000/svg" viewBox="0 0 464.51251 640" height="640" width="464.513"><defs><clipPath id="a"><path d="M0 0h3716v5119.99H0V0z"/></clipPath></defs><g clip-path="url(#a)" transform="matrix(.13 0 0 -.13 0 640)"><path d="M2213.49 1472.81c-51.61 0-93.6 41.99-93.6 93.61s41.99 93.6 93.6 93.6c51.62 0 93.61-41.99 93.61-93.6 0-51.61-41.98-93.61-93.61-93.61zm0 353.86c-143.49 0-260.25-116.75-260.25-260.25 0-143.51 116.76-260.26 260.25-260.26 143.51 0 260.26 116.75 260.26 260.26s-116.75 260.25-260.26 260.25"/><path d="M3540.08 4282.52l-136.69-402.3-331.37 112.59 136.69 402.32c15.04 44.26 46.4 80.02 88.34 100.68 41.92 20.68 89.37 23.78 133.58 8.75 91.4-31.03 140.48-130.65 109.45-222.04zM3413.3 482.762c0-174.3-141.81-316.114-316.11-316.114H1340.74c-174.3 0-316.11 141.813-316.11 316.114V3320.05h227.89V2117.03c0-137.38 111.77-249.13 249.14-249.13 137.36 0 249.13 111.75 249.13 249.13v520.47c0 45.49 36.99 82.48 82.48 82.48 45.48 0 82.48-36.99 82.48-82.48v-268.47c0-137.37 111.76-249.13 249.13-249.13 137.36 0 249.12 111.76 249.12 249.13v947.1l999.32 3.92V482.762h-.02zM1211.3 4341c71.96-21.49 145.8-35.2 220.18-41.03v-813.26H1211.3V4341zm125.39 280.36c55.89-24.06 116.21-36.82 178.13-36.82 61.89 0 122.2 12.77 178.11 36.83l80.31-119.79c-168.16-50.82-348.71-50.82-516.88 0l80.33 119.78zm178.12 265.67l82.87-123.61c-26.63-8.08-54.49-12.24-82.86-12.24-28.39 0-56.26 4.15-82.89 12.23l82.88 123.62zm303.5-1400.33h-220.17v813.27c74.37 5.83 148.21 19.55 220.17 41.03v-854.3zm414.49-166.65c4.72-1.5 9.59-2.52 14.54-3.15v-947.86c0-45.48-36.99-82.48-82.48-82.48-45.48 0-82.48 37-82.48 82.48v268.48c0 137.37-111.76 249.12-249.12 249.12-137.37 0-249.13-111.75-249.13-249.12v-520.48c0-45.49-37.01-82.48-82.49-82.48-45.49 0-82.48 36.99-82.48 82.48v1203.01h813.64zm126.7 1373c.31 21.79 18.29 39.52 40.08 39.52 21.8 0 39.78-17.71 40.08-39.51l17-1206.36h-114.17l17.01 1206.35zm658.91-858.02l331.36-112.59-80.1-235.74h-369.61l118.35 348.33zM857.973 2728.17h-292.18c-140.563 0-254.926-114.35-254.926-254.93V1311.88c0-140.56 114.363-254.93 254.926-254.93h292.18V912.72H535.81c-203.568 0-369.173 165.61-369.173 369.18v1221.33c0 203.57 165.605 369.17 369.172 369.17h322.163v-144.23zm0-1504.57h-292.18c-48.684 0-88.277 39.6-88.277 88.28v1161.36c0 48.68 39.593 88.28 88.277 88.28h292.18V1223.6zM3559.88 4625.75l35.47 104.44c14.8 43.57-8.52 90.89-52.08 105.7-43.53 14.8-90.9-8.51-105.71-52.1l-35.43-104.27c-60.99 5.07-122.44-6.46-178.77-34.22-81.86-40.37-143.11-110.17-172.44-196.56l-326.87-962.04h-100.72l-17.04 1208.69c-1.57 112.39-94.28 203.84-206.69 203.84-112.39 0-205.14-91.44-206.72-203.83l-17.03-1208.7h-190.87v973a83.26 83.26 0 0 1-14.12 46.4l-386.84 576.96a83.325 83.325 0 0 1-69.21 36.93 83.294 83.294 0 0 1-69.2-36.93l-386.83-576.96a83.42 83.42 0 0 1-14.12-46.4v-973H841.22c-46.03 0-83.325-37.31-83.325-83.32 0-46.02 37.296-83.33 83.324-83.33h16.764v-281H535.82C240.363 3039.05 0 2798.69 0 2503.23V1281.9c0-295.46 240.375-535.822 535.82-535.822h322.164V482.762C857.984 216.57 1074.55 0 1340.74 0H3097.2c266.19 0 482.76 216.57 482.76 482.762V3320.05h16.76c46.03 0 83.33 37.31 83.33 83.33 0 46.01-37.3 83.32-83.33 83.32h-151.04l252.21 742.22c51.33 151.17-9.68 313.83-138.01 396.83"/></g></svg>