<svg
   xmlns:dc="http://purl.org/dc/elements/1.1/"
   xmlns:cc="http://creativecommons.org/ns#"
   xmlns:rdf="http://www.w3.org/1999/02/22-rdf-syntax-ns#"
   xmlns:svg="http://www.w3.org/2000/svg"
   xmlns="http://www.w3.org/2000/svg"
   viewBox="0 0 475 401.25"
   height="401.25"
   width="475"
   xml:space="preserve"
   version="1.1"
   id="svg2"><metadata
     id="metadata8"><rdf:RDF><cc:Work
         rdf:about=""><dc:format>image/svg+xml</dc:format><dc:type
           rdf:resource="http://purl.org/dc/dcmitype/StillImage" /></cc:Work></rdf:RDF></metadata><defs
     id="defs6" /><g
     transform="matrix(1.25,0,0,-1.25,0,401.25)"
     id="g10"><g
       transform="scale(0.1,0.1)"
       id="g12"><path
         id="path14"
         style="fill:#1378bf;fill-opacity:1;fill-rule:nonzero;stroke:none"
         d="m 3734.1,3202.66 -2658.12,0 c -33.13,0 -60,-26.88 -60,-60 l 0,-275.98 -323.992,0 c -33.117,0 -60,-26.84 -60,-60 l 0,-171.09 -434.367,0 C 88.6289,2635.59 0,2546.91 0,2437.97 L 0,615.66 C 0,506.68 88.6289,418.051 197.621,418.051 l 1116.009,0 L 1249.49,130 1045.9,130 c -33.13,0 -60.002,-26.879 -60.002,-60 0,-33.1289 26.872,-60 60.002,-60 l 1054.3,0 c 33.12,0 60,26.8711 60,60 0,33.121 -26.88,60 -60,60 l -203.6,0 -64.14,288.051 1116.02,0 c 108.98,0 197.61,88.629 197.61,197.609 l 0,401.53 203.99,0 c 33.16,0 60,26.83 60,60 l 0,275.97 324.02,0 c 33.17,0 60,26.88 60,60 l 0,1729.5 c 0,33.12 -26.87,60 -60,60 z M 691.988,1017.19 l 2150.082,0 0,-295.12 -2538.09,0 0,1609.49 328.008,0 0,-1254.37 c 0,-33.17 26.883,-60 60,-60 z M 1372.42,130 l 64.14,288.051 272.97,0 64.1,-288.051 -401.21,0 z m 1653.67,485.66 c 0,-42.808 -34.8,-77.609 -77.61,-77.609 l -2750.859,0 c -42.82,0 -77.621,34.801 -77.621,77.609 l 0,1822.31 c 0,42.81 34.801,77.62 77.621,77.62 l 434.367,0 0,-64.03 -388.008,0 c -33.121,0 -60,-26.83 -60,-60 l 0,-1729.49 c 0,-33.16 26.879,-60 60,-60 l 2658.09,0 c 33.16,0 60,26.84 60,60 l 0,355.12 64.02,0 0,-401.53 z m 263.99,521.53 -2538.092,0 0,1609.49 263.992,0 0,-1333.52 c 0,-33.12 26.87,-60 60,-60 l 2214.1,0 0,-215.97 z m 384.02,335.97 -2538.12,0 0,1395.9 2538.12,0 0,-1395.9 z m 0,1515.9 -2538.12,0 0,93.6 2538.12,0 0,-93.6 z" /><path
         id="path16"
         style="fill:#1378bf;fill-opacity:1;fill-rule:nonzero;stroke:none"
         d="m 1260,1537.19 592.5,0 c 33.16,0 60,26.83 60,60 l 0,1147.89 c 0,33.12 -26.84,60 -60,60 l -592.5,0 c -33.16,0 -60,-26.88 -60,-60 l 0,-1147.89 c 0,-33.17 26.84,-60 60,-60 z m 60,1147.89 472.5,0 0,-1027.89 -472.5,0 0,1027.89 z" /><path
         id="path18"
         style="fill:#1378bf;fill-opacity:1;fill-rule:nonzero;stroke:none"
         d="m 2958.4,1537.19 592.5,0 c 33.12,0 60,26.83 60,60 l 0,1147.89 c 0,33.12 -26.88,60 -60,60 l -592.5,0 c -33.17,0 -60,-26.88 -60,-60 l 0,-1147.89 c 0,-33.17 26.83,-60 60,-60 z m 60,1147.89 472.5,0 0,-1027.89 -472.5,0 0,1027.89 z" /><path
         id="path20"
         style="fill:#1378bf;fill-opacity:1;fill-rule:nonzero;stroke:none"
         d="m 2109.18,1537.19 592.54,0 c 33.12,0 60,26.83 60,60 l 0,1147.89 c 0,33.12 -26.88,60 -60,60 l -592.54,0 c -33.13,0 -60,-26.88 -60,-60 l 0,-1147.89 c 0,-33.17 26.87,-60 60,-60 z m 60,1147.89 472.54,0 0,-1027.89 -472.54,0 0,1027.89 z" /></g></g></svg>
