<svg xmlns="http://www.w3.org/2000/svg" viewBox="0 0 475 401.25" height="401.25" width="475"><g fill="#1378bf"><path d="M466.762.918H134.498c-4.142 0-7.5 3.36-7.5 7.5v34.497h-40.5a7.5 7.5 0 0 0-7.5 7.5V71.8H24.704C11.08 71.8 0 82.887 0 96.505v227.79c0 13.62 11.08 24.7 24.703 24.7h139.5L156.187 385h-25.448c-4.142 0-7.5 3.36-7.5 7.5a7.5 7.5 0 0 0 7.5 7.5h131.787c4.14 0 7.5-3.36 7.5-7.5 0-4.14-3.36-7.5-7.5-7.5h-25.45l-8.018-36.006H368.56c13.622 0 24.7-11.08 24.7-24.702v-50.19h25.5c4.145 0 7.5-3.354 7.5-7.5v-34.497h40.502a7.5 7.5 0 0 0 7.5-7.5V8.418c0-4.14-3.358-7.5-7.5-7.5zM86.498 274.1h268.76v36.89H38V109.806h41V266.6a7.5 7.5 0 0 0 7.5 7.5zM171.553 385l8.017-36.006h34.12L221.705 385h-50.15zm206.708-60.708c0 5.352-4.35 9.702-9.7 9.702H24.703c-5.353 0-9.703-4.35-9.703-9.702V96.505c0-5.35 4.35-9.703 9.703-9.703H79v8.005H30.497a7.5 7.5 0 0 0-7.5 7.5V318.49a7.5 7.5 0 0 0 7.5 7.5h332.26c4.146 0 7.5-3.354 7.5-7.5V274.1h8.003v50.193zm33-65.19H93.998V57.914h33v166.69c0 4.14 3.358 7.5 7.5 7.5H411.26V259.1zm48.002-41.997H141.998V42.618h317.264v174.487zm0-189.487H141.998v-11.7h317.264v11.7z"/><path d="M157.5 209.1h74.063c4.145 0 7.5-3.353 7.5-7.5V58.116a7.5 7.5 0 0 0-7.5-7.5H157.5a7.5 7.5 0 0 0-7.5 7.5V201.6c0 4.147 3.355 7.5 7.5 7.5zM165 65.616h59.063V194.1H165V65.616zM369.8 209.1h74.063a7.5 7.5 0 0 0 7.5-7.5V58.116c0-4.14-3.36-7.5-7.5-7.5H369.8a7.5 7.5 0 0 0-7.5 7.5V201.6c0 4.147 3.354 7.5 7.5 7.5zm7.5-143.485h59.063V194.1H377.3V65.616zM263.647 209.1h74.068a7.5 7.5 0 0 0 7.5-7.5V58.116c0-4.14-3.36-7.5-7.5-7.5h-74.067c-4.142 0-7.5 3.36-7.5 7.5V201.6c0 4.147 3.358 7.5 7.5 7.5zm7.5-143.485h59.068V194.1h-59.068V65.616z"/></g></svg>