<svg xmlns="http://www.w3.org/2000/svg"><symbol id="sprite-levels" viewBox="0 0 475 401.25"><g fill="#1378bf"><path d="M466.762.918H134.498c-4.142 0-7.5 3.36-7.5 7.5v34.497h-40.5a7.5 7.5 0 0 0-7.5 7.5V71.8H24.704C11.08 71.8 0 82.887 0 96.505v227.79c0 13.62 11.08 24.7 24.703 24.7h139.5L156.187 385h-25.448c-4.142 0-7.5 3.36-7.5 7.5a7.5 7.5 0 0 0 7.5 7.5h131.787c4.14 0 7.5-3.36 7.5-7.5 0-4.14-3.36-7.5-7.5-7.5h-25.45l-8.018-36.006H368.56c13.622 0 24.7-11.08 24.7-24.702v-50.19h25.5c4.145 0 7.5-3.354 7.5-7.5v-34.497h40.502a7.5 7.5 0 0 0 7.5-7.5V8.418c0-4.14-3.358-7.5-7.5-7.5zM86.498 274.1h268.76v36.89H38V109.806h41V266.6a7.5 7.5 0 0 0 7.5 7.5zM171.553 385l8.017-36.006h34.12L221.705 385h-50.15zm206.708-60.708c0 5.352-4.35 9.702-9.7 9.702H24.703c-5.353 0-9.703-4.35-9.703-9.702V96.505c0-5.35 4.35-9.703 9.703-9.703H79v8.005H30.497a7.5 7.5 0 0 0-7.5 7.5V318.49a7.5 7.5 0 0 0 7.5 7.5h332.26c4.146 0 7.5-3.354 7.5-7.5V274.1h8.003v50.193zm33-65.19H93.998V57.914h33v166.69c0 4.14 3.358 7.5 7.5 7.5H411.26V259.1zm48.002-41.997H141.998V42.618h317.264v174.487zm0-189.487H141.998v-11.7h317.264v11.7z"/><path d="M157.5 209.1h74.063c4.145 0 7.5-3.353 7.5-7.5V58.116a7.5 7.5 0 0 0-7.5-7.5H157.5a7.5 7.5 0 0 0-7.5 7.5V201.6c0 4.147 3.355 7.5 7.5 7.5zM165 65.616h59.063V194.1H165V65.616zM369.8 209.1h74.063a7.5 7.5 0 0 0 7.5-7.5V58.116c0-4.14-3.36-7.5-7.5-7.5H369.8a7.5 7.5 0 0 0-7.5 7.5V201.6c0 4.147 3.354 7.5 7.5 7.5zm7.5-143.485h59.063V194.1H377.3V65.616zM263.647 209.1h74.068a7.5 7.5 0 0 0 7.5-7.5V58.116c0-4.14-3.36-7.5-7.5-7.5h-74.067c-4.142 0-7.5 3.36-7.5 7.5V201.6c0 4.147 3.358 7.5 7.5 7.5zm7.5-143.485h59.068V194.1h-59.068V65.616z"/></g></symbol><symbol id="sprite-target" viewBox="0 0 512.5 513.75"><path d="M449.595 122.28a9.575 9.575 0 0 0 7.846-2.754l51.748-51.742a9.6 9.6 0 0 0-5.92-16.343l-38.69-3.52-3.52-38.69a9.587 9.587 0 0 0-6.29-8.15c-3.5-1.27-7.42-.4-10.054 2.236L392.97 55.06a9.6 9.6 0 0 0-2.75 7.845l4.58 41.226-9.692 9.69c-35.787-32.736-82.725-53.464-134.38-55.76V39.84c0-5.304-4.297-9.6-9.6-9.6-5.298 0-9.594 4.296-9.594 9.6v18.217c-110.128 4.898-198.82 93.59-203.717 203.715H9.595c-5.298 0-9.595 4.298-9.595 9.6 0 5.298 4.297 9.595 9.595 9.595h18.222c4.898 110.127 93.59 198.818 203.717 203.716V502.9c0 5.304 4.296 9.6 9.594 9.6 5.303 0 9.6-4.296 9.6-9.6v-18.217c110.122-4.898 198.818-93.59 203.716-203.715h18.217c5.304 0 9.6-4.298 9.6-9.595a9.6 9.6 0 0 0-9.6-9.6h-18.216c-2.295-51.656-23.023-98.594-55.763-134.386l9.694-9.687 41.22 4.58zm-5.79-90.903l2.386 26.25a9.598 9.598 0 0 0 8.688 8.687l26.25 2.387-34 33.995-33.588-3.73-3.735-33.594 34-33.993zm-8.57 230.395h-13.52c-5.3 0-9.596 4.298-9.596 9.6 0 5.298 4.296 9.595 9.594 9.595h13.52c-4.863 99.54-84.965 179.644-184.506 184.507v-13.52c0-5.3-4.297-9.595-9.596-9.595-5.302 0-9.598 4.295-9.598 9.594v13.52c-99.54-4.863-179.644-84.966-184.508-184.506h13.52c5.3 0 9.595-4.298 9.595-9.595 0-5.303-4.295-9.6-9.593-9.6h-13.52C51.89 162.23 131.992 82.13 231.533 77.266v13.52c0 5.298 4.296 9.595 9.594 9.595 5.303 0 9.6-4.296 9.6-9.594v-13.52c46.367 2.265 88.51 20.854 120.806 50.132l-28.878 28.877c-27.085-23.92-62.636-38.463-101.53-38.463-84.666 0-153.552 68.888-153.552 153.56 0 84.673 68.886 153.556 153.553 153.556 84.674 0 153.555-68.883 153.555-153.556 0-38.89-14.536-74.443-38.457-101.528l28.883-28.877c29.272 32.295 47.86 74.438 50.127 120.805zm-200.89 16.383a9.557 9.557 0 0 0 6.782 2.813 9.56 9.56 0 0 0 6.788-2.813l52.12-52.12c9.686 12.564 15.472 28.28 15.472 45.338 0 41.01-33.363 74.38-74.38 74.38-41.01 0-74.38-33.37-74.38-74.38 0-41.017 33.37-74.38 74.38-74.38 17.057 0 32.774 5.78 45.338 15.473l-52.124 52.12c-3.744 3.75-3.744 9.824.006 13.57zm6.787-100.356c-51.596 0-93.573 41.976-93.573 93.573 0 51.596 41.976 93.573 93.572 93.573 51.598 0 93.57-41.977 93.57-93.573 0-22.35-7.88-42.887-21.006-58.994l28.945-28.942c20.456 23.58 32.854 54.336 32.854 87.935 0 74.086-60.274 134.36-134.362 134.36-74.086 0-134.36-60.274-134.36-134.36 0-74.088 60.274-134.365 134.36-134.365 33.594 0 64.352 12.397 87.935 32.856l-28.94 28.94c-16.113-13.12-36.646-21.005-58.995-21.005z"/></symbol></svg>